PathFileType	4	(X/Y/Z)	C:\Documents and Settings\mvidt\Desktop\Forward_reach_ACS_12-5-11\acs_static-redo2.trc
DataRate	CameraRate	NumFrames	NumMarkers	Units	OrigDataRate	OrigDataStartFrame	OrigNumFrames
200.00	200.00	      12	10	mm	200.00	1251	      2000
Frame#	Time	R.Clavicle			C7			R.Shoulder			R.Bicep			R.Elbow.Lateral			R.Forearm			R.Radius			Handle			R.Elbow.Medial			R.Ulna			
		X1	Y1	Z1	X2	Y2	Z2	X3	Y3	Z3	X4	Y4	Z4	X5	Y5	Z5	X6	Y6	Z6	X7	Y7	Z7	X8	Y8	Z8	X9	Y9	Z9	X10	Y10	Z10	

1251	6.250	-236.52676	365.06619	308.03177	-358.56427	348.67966	414.36218	-247.01918	196.77042	295.76752	-112.07429	211.21075	173.40625	-60.13053	181.82330	70.25408	25.68396	221.54889	133.76489	165.15593	289.79449	182.53918	274.27841	335.77774	234.52025	-77.32912	262.02408	42.35613	195.01523	247.68681	111.63997	
1252	6.255	-237.37111	363.49939	307.50061	-358.09039	348.08109	413.96649	-246.85272	196.48529	295.79834	-112.37513	210.04878	173.00490	-60.32212	181.47408	69.62566	26.06429	220.69028	133.56438	165.57603	288.62781	181.69696	275.50931	334.15393	233.61928	-77.62753	262.41809	42.60921	195.16451	248.69168	109.53476	
1253	6.260	-237.37468	362.39783	309.02197	-357.28818	347.03278	413.86694	-246.77092	195.89590	295.62393	-112.37513	210.04878	173.00490	-60.51371	181.12485	68.99725	25.77948	219.16754	132.18063	166.14224	287.85312	180.96619	276.21036	331.93964	232.20636	-77.13833	262.37109	42.05146	196.06415	247.90472	108.00957	
1254	6.265	-236.97166	362.12982	309.13336	-356.68341	346.18097	414.05914	-245.55782	194.36382	293.51013	-110.66748	212.21046	171.80486	-60.70530	180.77560	68.36883	26.14545	218.39343	132.27562	167.11491	286.63425	178.83871	276.25504	330.67551	231.40207	-73.83059	265.79288	44.04307	195.65082	248.39651	106.78854	
1255	6.270	-236.50203	361.72403	309.05499	-356.36447	346.27740	414.60556	-245.58186	194.39359	294.22763	-110.14884	211.84355	170.97882	-60.89688	180.42638	67.74041	25.00117	218.15984	130.63438	167.58832	285.15533	178.41068	277.68646	328.95807	230.42162	-73.83059	265.79288	44.04307	195.85664	248.22786	104.82337	
1256	6.275	-236.50203	361.72403	309.05499	-356.36447	346.27740	414.60556	-245.58186	194.39359	294.22763	-109.96181	209.50812	169.86133	-61.08847	180.07713	67.11199	25.54122	217.43219	130.01906	167.68906	284.75525	177.98410	278.41635	326.83533	229.34108	-75.68239	263.33920	42.57275	195.40396	247.39116	103.55074	
1257	6.280	-236.35506	361.55051	308.97986	-356.00278	345.76965	414.00201	-245.49214	194.15715	294.38443	-109.86205	209.20927	169.47083	-61.28006	179.72791	66.48357	26.69099	216.86656	129.32945	168.13928	283.16318	176.63913	278.66602	325.95569	228.88898	-75.06226	264.15582	42.42356	195.56548	246.48801	102.88062	
1258	6.285	-234.98521	360.27454	307.08466	-355.32672	345.11499	413.88037	-244.50554	193.66370	293.64188	-109.86205	209.20927	169.47083	-61.47165	179.37868	65.85516	26.28986	215.22617	128.41940	168.87100	282.15875	175.87833	280.01837	324.16217	227.73819	-75.06226	264.15582	42.42356	195.85976	246.56908	100.64056	
1259	6.290	-234.50482	360.16763	307.02341	-354.49518	344.34595	413.54074	-244.09390	192.93864	293.24213	-110.10721	207.61914	169.37502	-61.66324	179.02945	65.22674	26.65146	214.96028	127.57305	169.14146	281.17447	175.29507	280.98904	322.96820	225.99478	-76.27802	263.58566	42.01490	195.67126	245.55209	99.99929	
1260	6.295	-233.93584	360.57739	306.82916	-353.87567	343.86099	413.39072	-243.52353	192.38232	292.67938	-109.80017	207.71567	168.68874	-61.85482	178.68021	64.59833	26.67339	214.58318	127.35614	169.02077	279.02209	173.96187	281.60333	321.47708	225.80762	-75.26935	263.96082	41.70621	196.42717	244.47583	99.07818	
1261	6.300	-234.99481	358.52493	305.88046	-353.83899	343.51862	413.76666	-243.32048	192.21124	292.88821	-109.67910	207.73453	168.88226	-62.04641	178.33096	63.96990	28.42837	216.55336	126.41461	170.06076	279.00607	173.91055	282.11081	319.21268	224.11903	-76.56016	262.14066	40.12508	196.10909	244.97429	97.58451	
1262	6.305	-234.31052	357.94083	306.01724	-353.63663	343.43427	414.36386	-243.11353	191.42529	292.77951	-108.56723	208.18065	168.30714	-62.23800	177.98174	63.34149	27.53653	214.24512	125.97729	170.27451	278.34802	173.39279	282.93079	318.49100	223.50885	-77.09211	260.75739	39.33821	196.76442	244.81305	95.86365	
